<svg xmlns="http://www.w3.org/2000/svg" xmlns:xlink="http://www.w3.org/1999/xlink" width="1920" zoomAndPan="magnify" viewBox="0 0 1440 809.999993" height="1080" preserveAspectRatio="xMidYMid meet" version="1.0"><defs><g/><clipPath id="a9af5d1e2b"><path d="M 765.75 374 L 875 374 L 875 418 L 765.75 418 Z M 765.75 374 " clip-rule="nonzero"/></clipPath></defs><g clip-path="url(#a9af5d1e2b)"><path fill="#ffffff" d="M 556.359375 417.054688 L 556.359375 375.660156 L 564.242188 375.660156 L 564.242188 417.054688 Z M 590.746094 417.78125 C 587.109375 417.78125 583.976562 417.199219 581.347656 416.03125 C 578.722656 414.863281 576.703125 413.09375 575.285156 410.71875 C 573.914062 408.308594 573.226562 405.308594 573.226562 401.730469 L 573.226562 375.660156 L 581.105469 375.660156 L 581.105469 401.488281 C 581.105469 404.667969 581.933594 407.078125 583.59375 408.730469 C 585.289062 410.339844 587.671875 411.144531 590.746094 411.144531 C 593.816406 411.144531 596.199219 410.339844 597.898438 408.730469 C 599.636719 407.078125 600.503906 404.667969 600.503906 401.488281 L 600.503906 375.660156 L 608.386719 375.660156 L 608.386719 401.730469 C 608.386719 405.308594 607.679688 408.308594 606.261719 410.71875 C 604.847656 413.09375 602.828125 414.863281 600.203125 416.03125 C 597.574219 417.199219 594.421875 417.78125 590.746094 417.78125 Z M 617.335938 417.054688 L 617.335938 375.660156 L 639.21875 375.660156 C 642.289062 375.660156 644.835938 376.183594 646.855469 377.230469 C 648.875 378.277344 650.390625 379.765625 651.402344 381.695312 C 652.414062 383.625 652.917969 385.898438 652.917969 388.515625 C 652.917969 391.210938 652.3125 393.601562 651.097656 395.695312 C 649.886719 397.746094 648.109375 399.296875 645.765625 400.339844 L 654.371094 417.054688 L 645.765625 417.054688 L 638.125 401.667969 L 625.214844 401.667969 L 625.214844 417.054688 Z M 625.214844 395.089844 L 638.613281 395.089844 C 640.632812 395.089844 642.1875 394.507812 643.28125 393.34375 C 644.371094 392.175781 644.917969 390.566406 644.917969 388.515625 C 644.917969 387.1875 644.671875 386.082031 644.1875 385.195312 C 643.703125 384.269531 642.996094 383.566406 642.066406 383.082031 C 641.136719 382.601562 639.984375 382.359375 638.613281 382.359375 L 625.214844 382.359375 Z M 660.785156 417.054688 L 660.785156 375.660156 L 668.667969 375.660156 L 668.667969 417.054688 Z M 696.203125 417.78125 C 691.957031 417.78125 688.320312 417.035156 685.289062 415.546875 C 682.300781 414.058594 679.996094 411.746094 678.378906 408.609375 C 676.804688 405.429688 676.015625 401.347656 676.015625 396.359375 C 676.015625 389.078125 677.792969 383.6875 681.351562 380.1875 C 684.90625 376.6875 689.855469 374.9375 696.203125 374.9375 C 699.636719 374.9375 702.726562 375.519531 705.476562 376.6875 C 708.265625 377.855469 710.46875 379.625 712.085938 381.996094 C 713.742188 384.332031 714.570312 387.308594 714.570312 390.929688 L 706.507812 390.929688 C 706.507812 388.917969 706.0625 387.226562 705.171875 385.859375 C 704.324219 384.453125 703.132812 383.386719 701.597656 382.660156 C 700.0625 381.9375 698.304688 381.574219 696.324219 381.574219 C 693.574219 381.574219 691.292969 382.117188 689.472656 383.203125 C 687.65625 384.25 686.300781 385.820312 685.410156 387.910156 C 684.5625 390.003906 684.136719 392.597656 684.136719 395.695312 L 684.136719 397.023438 C 684.136719 400.160156 684.5625 402.777344 685.410156 404.867188 C 686.300781 406.960938 687.632812 408.527344 689.414062 409.574219 C 691.230469 410.621094 693.535156 411.144531 696.324219 411.144531 C 698.425781 411.144531 700.261719 410.800781 701.839844 410.117188 C 703.414062 409.394531 704.628906 408.347656 705.476562 406.980469 C 706.367188 405.570312 706.808594 403.863281 706.808594 401.851562 L 714.570312 401.851562 C 714.570312 405.472656 713.761719 408.46875 712.144531 410.839844 C 710.527344 413.175781 708.324219 414.925781 705.539062 416.089844 C 702.789062 417.21875 699.675781 417.78125 696.203125 417.78125 Z M 740.679688 417.78125 C 736.355469 417.78125 732.617188 417.015625 729.464844 415.488281 C 726.3125 413.917969 723.886719 411.546875 722.191406 408.367188 C 720.53125 405.1875 719.703125 401.1875 719.703125 396.359375 C 719.703125 391.492188 720.53125 387.488281 722.191406 384.351562 C 723.886719 381.171875 726.3125 378.820312 729.464844 377.289062 C 732.617188 375.722656 736.355469 374.9375 740.679688 374.9375 C 745.042969 374.9375 748.78125 375.722656 751.894531 377.289062 C 755.046875 378.820312 757.449219 381.171875 759.105469 384.351562 C 760.804688 387.488281 761.652344 391.492188 761.652344 396.359375 C 761.652344 401.1875 760.804688 405.1875 759.105469 408.367188 C 757.449219 411.546875 755.046875 413.917969 751.894531 415.488281 C 748.78125 417.015625 745.042969 417.78125 740.679688 417.78125 Z M 740.679688 411.144531 C 742.78125 411.144531 744.617188 410.839844 746.195312 410.238281 C 747.8125 409.632812 749.164062 408.75 750.257812 407.582031 C 751.347656 406.375 752.175781 404.90625 752.742188 403.175781 C 753.304688 401.40625 753.589844 399.375 753.589844 397.082031 L 753.589844 395.753906 C 753.589844 393.421875 753.304688 391.371094 752.742188 389.601562 C 752.175781 387.832031 751.347656 386.363281 750.257812 385.195312 C 749.164062 383.988281 747.8125 383.082031 746.195312 382.480469 C 744.617188 381.875 742.78125 381.574219 740.679688 381.574219 C 738.578125 381.574219 736.71875 381.875 735.101562 382.480469 C 733.523438 383.082031 732.191406 383.988281 731.101562 385.195312 C 730.007812 386.363281 729.179688 387.832031 728.613281 389.601562 C 728.089844 391.371094 727.828125 393.421875 727.828125 395.753906 L 727.828125 397.082031 C 727.828125 399.375 728.089844 401.40625 728.613281 403.175781 C 729.179688 404.90625 730.007812 406.375 731.101562 407.582031 C 732.191406 408.75 733.523438 409.632812 735.101562 410.238281 C 736.71875 410.839844 738.578125 411.144531 740.679688 411.144531 Z M 841.816406 417.054688 L 841.816406 375.660156 L 874.246094 375.660156 L 874.246094 382.359375 L 849.695312 382.359375 L 849.695312 392.558594 L 871.582031 392.558594 L 871.582031 399.253906 L 849.695312 399.253906 L 849.695312 410.359375 L 874.613281 410.359375 L 874.613281 417.054688 Z M 841.816406 417.054688 " fill-opacity="1" fill-rule="nonzero"/></g><path fill="#986dff" d="M 788.003906 377.09375 C 787.175781 377.09375 786.527344 377.214844 786.050781 377.449219 C 785.617188 377.683594 785.304688 378.214844 785.105469 379.039062 C 784.949219 379.863281 784.871094 381.175781 784.871094 382.980469 L 784.871094 388.75 C 784.871094 390.242188 784.632812 391.535156 784.160156 392.636719 C 783.726562 393.695312 783.210938 394.558594 782.621094 395.226562 C 782.027344 395.894531 781.476562 396.402344 780.964844 396.757812 C 781.398438 397.070312 781.910156 397.5625 782.503906 398.226562 C 783.132812 398.855469 783.6875 399.640625 784.160156 400.582031 C 784.632812 401.484375 784.871094 402.503906 784.871094 403.644531 L 784.871094 410.707031 C 784.871094 412.472656 784.949219 413.769531 785.105469 414.59375 C 785.304688 415.417969 785.617188 415.945312 786.050781 416.183594 C 786.527344 416.417969 787.175781 416.535156 788.003906 416.535156 L 790.195312 416.535156 L 790.195312 423.714844 L 785.519531 423.714844 C 784.414062 423.714844 783.3125 423.695312 782.207031 423.65625 C 781.140625 423.617188 780.15625 423.402344 779.25 423.011719 C 778.34375 422.65625 777.609375 421.96875 777.058594 420.949219 C 776.546875 419.96875 776.289062 418.535156 776.289062 416.652344 L 776.289062 406.941406 C 776.289062 405.761719 776.113281 404.664062 775.757812 403.644531 C 775.402344 402.582031 774.871094 401.71875 774.160156 401.054688 C 773.449219 400.386719 772.5625 400.050781 771.5 400.050781 L 771.5 393.222656 C 772.5625 393.183594 773.449219 392.851562 774.160156 392.222656 C 774.871094 391.554688 775.402344 390.710938 775.757812 389.691406 C 776.113281 388.632812 776.289062 387.515625 776.289062 386.335938 L 776.289062 377.035156 C 776.289062 375.152344 776.546875 373.71875 777.058594 372.738281 C 777.574219 371.757812 778.261719 371.070312 779.128906 370.679688 C 780.039062 370.285156 781.042969 370.070312 782.148438 370.03125 C 783.253906 369.953125 784.375 369.914062 785.519531 369.914062 L 790.195312 369.914062 L 790.195312 377.09375 Z M 832.117188 397.285156 C 832.117188 401.289062 831.625 405.035156 830.636719 408.527344 C 829.691406 412.023438 828.46875 415.121094 826.96875 417.828125 C 825.472656 420.578125 823.875 422.832031 822.179688 424.597656 L 815.375 421.480469 C 816.910156 419.714844 818.292969 417.632812 819.515625 415.238281 C 820.738281 412.886719 821.703125 410.214844 822.414062 407.234375 C 823.125 404.210938 823.480469 400.894531 823.480469 397.285156 C 823.480469 393.675781 823.125 390.378906 822.414062 387.398438 C 821.703125 384.375 820.738281 381.6875 819.515625 379.332031 C 818.292969 376.9375 816.910156 374.878906 815.375 373.152344 L 822.179688 369.972656 C 823.875 371.738281 825.472656 373.996094 826.96875 376.742188 C 828.46875 379.488281 829.691406 382.609375 830.636719 386.101562 C 831.625 389.554688 832.117188 393.28125 832.117188 397.285156 Z M 832.117188 397.285156 " fill-opacity="1" fill-rule="nonzero"/><g fill="#ffffff" fill-opacity="1"><g transform="translate(559.496042, 421.476614)"><g><path d="M 2.71875 -47.65625 L 10.21875 -47.65625 L 10.21875 0 L 2.71875 0 Z M 2.71875 -47.65625 "/></g></g></g><g fill="#ffffff" fill-opacity="1"><g transform="translate(572.430531, 421.476614)"><g><path d="M 13.953125 -26.546875 L 24.4375 -26.546875 L 24.4375 -11.4375 C 24.4375 -7.582031 23.492188 -4.617188 21.609375 -2.546875 C 19.734375 -0.484375 16.957031 0.546875 13.28125 0.546875 C 9.601562 0.546875 6.820312 -0.484375 4.9375 -2.546875 C 3.050781 -4.617188 2.109375 -7.582031 2.109375 -11.4375 L 2.109375 -36.21875 C 2.109375 -40.070312 3.050781 -43.03125 4.9375 -45.09375 C 6.820312 -47.164062 9.601562 -48.203125 13.28125 -48.203125 C 16.957031 -48.203125 19.734375 -47.164062 21.609375 -45.09375 C 23.492188 -43.03125 24.4375 -40.070312 24.4375 -36.21875 L 24.4375 -31.59375 L 17.359375 -31.59375 L 17.359375 -36.6875 C 17.359375 -38.414062 17.003906 -39.628906 16.296875 -40.328125 C 15.597656 -41.035156 14.660156 -41.390625 13.484375 -41.390625 C 12.296875 -41.390625 11.347656 -41.035156 10.640625 -40.328125 C 9.941406 -39.628906 9.59375 -38.414062 9.59375 -36.6875 L 9.59375 -10.953125 C 9.59375 -9.234375 9.941406 -8.03125 10.640625 -7.34375 C 11.347656 -6.664062 12.296875 -6.328125 13.484375 -6.328125 C 14.660156 -6.328125 15.597656 -6.664062 16.296875 -7.34375 C 17.003906 -8.03125 17.359375 -9.234375 17.359375 -10.953125 L 17.359375 -19.75 L 13.953125 -19.75 Z M 13.953125 -26.546875 "/></g></g></g><g fill="#ffffff" fill-opacity="1"><g transform="translate(598.980291, 421.476614)"><g><path d="M 9.59375 -10.953125 C 9.59375 -9.234375 9.941406 -8.019531 10.640625 -7.3125 C 11.347656 -6.613281 12.296875 -6.265625 13.484375 -6.265625 C 14.660156 -6.265625 15.597656 -6.613281 16.296875 -7.3125 C 17.003906 -8.019531 17.359375 -9.234375 17.359375 -10.953125 L 17.359375 -36.6875 C 17.359375 -38.414062 17.003906 -39.628906 16.296875 -40.328125 C 15.597656 -41.035156 14.660156 -41.390625 13.484375 -41.390625 C 12.296875 -41.390625 11.347656 -41.035156 10.640625 -40.328125 C 9.941406 -39.628906 9.59375 -38.414062 9.59375 -36.6875 Z M 2.109375 -36.21875 C 2.109375 -40.070312 3.082031 -43.03125 5.03125 -45.09375 C 6.988281 -47.164062 9.804688 -48.203125 13.484375 -48.203125 C 17.160156 -48.203125 19.972656 -47.164062 21.921875 -45.09375 C 23.867188 -43.03125 24.84375 -40.070312 24.84375 -36.21875 L 24.84375 -11.4375 C 24.84375 -7.582031 23.867188 -4.617188 21.921875 -2.546875 C 19.972656 -0.484375 17.160156 0.546875 13.484375 0.546875 C 9.804688 0.546875 6.988281 -0.484375 5.03125 -2.546875 C 3.082031 -4.617188 2.109375 -7.582031 2.109375 -11.4375 Z M 2.109375 -36.21875 "/></g></g></g><g fill="#ffffff" fill-opacity="1"><g transform="translate(625.938497, 421.476614)"><g><path d="M 18.375 0 C 18.289062 -0.3125 18.203125 -0.601562 18.109375 -0.875 C 18.015625 -1.15625 17.929688 -1.5 17.859375 -1.90625 C 17.796875 -2.3125 17.753906 -2.832031 17.734375 -3.46875 C 17.710938 -4.101562 17.703125 -4.898438 17.703125 -5.859375 L 17.703125 -13.34375 C 17.703125 -15.5625 17.316406 -17.125 16.546875 -18.03125 C 15.773438 -18.945312 14.523438 -19.40625 12.796875 -19.40625 L 10.21875 -19.40625 L 10.21875 0 L 2.71875 0 L 2.71875 -47.65625 L 14.03125 -47.65625 C 17.925781 -47.65625 20.75 -46.742188 22.5 -44.921875 C 24.25 -43.109375 25.125 -40.363281 25.125 -36.6875 L 25.125 -32.953125 C 25.125 -28.046875 23.488281 -24.820312 20.21875 -23.28125 C 22.125 -22.507812 23.425781 -21.25 24.125 -19.5 C 24.832031 -17.757812 25.1875 -15.640625 25.1875 -13.140625 L 25.1875 -5.78125 C 25.1875 -4.601562 25.234375 -3.570312 25.328125 -2.6875 C 25.421875 -1.800781 25.644531 -0.90625 26 0 Z M 10.21875 -40.84375 L 10.21875 -26.203125 L 13.140625 -26.203125 C 14.546875 -26.203125 15.644531 -26.566406 16.4375 -27.296875 C 17.226562 -28.023438 17.625 -29.34375 17.625 -31.25 L 17.625 -35.9375 C 17.625 -37.664062 17.316406 -38.914062 16.703125 -39.6875 C 16.097656 -40.457031 15.132812 -40.84375 13.8125 -40.84375 Z M 10.21875 -40.84375 "/></g></g></g><g fill="#ffffff" fill-opacity="1"><g transform="translate(653.305166, 421.476614)"><g><path d="M 24.4375 -17.765625 L 24.4375 -11.4375 C 24.4375 -7.582031 23.492188 -4.617188 21.609375 -2.546875 C 19.734375 -0.484375 16.957031 0.546875 13.28125 0.546875 C 9.601562 0.546875 6.820312 -0.484375 4.9375 -2.546875 C 3.050781 -4.617188 2.109375 -7.582031 2.109375 -11.4375 L 2.109375 -36.21875 C 2.109375 -40.070312 3.050781 -43.03125 4.9375 -45.09375 C 6.820312 -47.164062 9.601562 -48.203125 13.28125 -48.203125 C 16.957031 -48.203125 19.734375 -47.164062 21.609375 -45.09375 C 23.492188 -43.03125 24.4375 -40.070312 24.4375 -36.21875 L 24.4375 -31.59375 L 17.359375 -31.59375 L 17.359375 -36.6875 C 17.359375 -38.414062 17.003906 -39.628906 16.296875 -40.328125 C 15.597656 -41.035156 14.660156 -41.390625 13.484375 -41.390625 C 12.296875 -41.390625 11.347656 -41.035156 10.640625 -40.328125 C 9.941406 -39.628906 9.59375 -38.414062 9.59375 -36.6875 L 9.59375 -10.953125 C 9.59375 -9.234375 9.941406 -8.03125 10.640625 -7.34375 C 11.347656 -6.664062 12.296875 -6.328125 13.484375 -6.328125 C 14.660156 -6.328125 15.597656 -6.664062 16.296875 -7.34375 C 17.003906 -8.03125 17.359375 -9.234375 17.359375 -10.953125 L 17.359375 -17.765625 Z M 24.4375 -17.765625 "/></g></g></g><g fill="#ffffff" fill-opacity="1"><g transform="translate(679.582621, 421.476614)"><g><path d="M 9.59375 -10.953125 C 9.59375 -9.234375 9.941406 -8.019531 10.640625 -7.3125 C 11.347656 -6.613281 12.296875 -6.265625 13.484375 -6.265625 C 14.660156 -6.265625 15.597656 -6.613281 16.296875 -7.3125 C 17.003906 -8.019531 17.359375 -9.234375 17.359375 -10.953125 L 17.359375 -36.6875 C 17.359375 -38.414062 17.003906 -39.628906 16.296875 -40.328125 C 15.597656 -41.035156 14.660156 -41.390625 13.484375 -41.390625 C 12.296875 -41.390625 11.347656 -41.035156 10.640625 -40.328125 C 9.941406 -39.628906 9.59375 -38.414062 9.59375 -36.6875 Z M 2.109375 -36.21875 C 2.109375 -40.070312 3.082031 -43.03125 5.03125 -45.09375 C 6.988281 -47.164062 9.804688 -48.203125 13.484375 -48.203125 C 17.160156 -48.203125 19.972656 -47.164062 21.921875 -45.09375 C 23.867188 -43.03125 24.84375 -40.070312 24.84375 -36.21875 L 24.84375 -11.4375 C 24.84375 -7.582031 23.867188 -4.617188 21.921875 -2.546875 C 19.972656 -0.484375 17.160156 0.546875 13.484375 0.546875 C 9.804688 0.546875 6.988281 -0.484375 5.03125 -2.546875 C 3.082031 -4.617188 2.109375 -7.582031 2.109375 -11.4375 Z M 2.109375 -36.21875 "/></g></g></g><g fill="#ffffff" fill-opacity="1"><g transform="translate(706.540828, 421.476614)"><g><path d="M 2.71875 -47.65625 L 14.5625 -47.65625 C 18.332031 -47.65625 21.132812 -46.65625 22.96875 -44.65625 C 24.8125 -42.65625 25.734375 -39.726562 25.734375 -35.875 L 25.734375 -11.78125 C 25.734375 -7.914062 24.8125 -4.984375 22.96875 -2.984375 C 21.132812 -0.992188 18.332031 0 14.5625 0 L 2.71875 0 Z M 10.21875 -40.84375 L 10.21875 -6.8125 L 14.4375 -6.8125 C 15.613281 -6.8125 16.539062 -7.148438 17.21875 -7.828125 C 17.90625 -8.503906 18.25 -9.707031 18.25 -11.4375 L 18.25 -36.21875 C 18.25 -37.9375 17.90625 -39.132812 17.21875 -39.8125 C 16.539062 -40.5 15.613281 -40.84375 14.4375 -40.84375 Z M 10.21875 -40.84375 "/></g></g></g><g fill="#ffffff" fill-opacity="1"><g transform="translate(734.31596, 421.476614)"><g><path d="M 10.21875 -27.578125 L 20.484375 -27.578125 L 20.484375 -20.765625 L 10.21875 -20.765625 L 10.21875 -6.8125 L 23.140625 -6.8125 L 23.140625 0 L 2.71875 0 L 2.71875 -47.65625 L 23.140625 -47.65625 L 23.140625 -40.84375 L 10.21875 -40.84375 Z M 10.21875 -27.578125 "/></g></g></g></svg>