<svg xmlns="http://www.w3.org/2000/svg" xmlns:xlink="http://www.w3.org/1999/xlink" width="173" height="35" viewBox="0 0 173 35" fill="none" preserveAspectRatio="xMidYMid meet" version="1.0"><defs><g/><clipPath id="c56467fac1"><path d="M 829.132812 333 L 1087 333 L 1087 436 L 829.132812 436 Z M 829.132812 333 " clip-rule="nonzero"/></clipPath></defs><g clip-path="url(#c56467fac1)"><path fill="#ffffff" d="M 333.292969 433.316406 L 333.292969 335.292969 L 351.953125 335.292969 L 351.953125 433.316406 Z M 414.71875 435.03125 C 406.105469 435.03125 398.6875 433.652344 392.46875 430.890625 C 386.246094 428.125 381.460938 423.933594 378.113281 418.3125 C 374.859375 412.597656 373.230469 405.5 373.230469 397.023438 L 373.230469 335.292969 L 391.894531 335.292969 L 391.894531 396.453125 C 391.894531 403.976562 393.855469 409.691406 397.777344 413.597656 C 401.796875 417.410156 407.445312 419.316406 414.71875 419.316406 C 421.992188 419.316406 427.636719 417.410156 431.65625 413.597656 C 435.769531 409.691406 437.828125 403.976562 437.828125 396.453125 L 437.828125 335.292969 L 456.488281 335.292969 L 456.488281 397.023438 C 456.488281 405.5 454.816406 412.597656 451.464844 418.3125 C 448.117188 423.933594 443.332031 428.125 437.109375 430.890625 C 430.890625 433.652344 423.425781 435.03125 414.71875 435.03125 Z M 477.683594 433.316406 L 477.683594 335.292969 L 529.503906 335.292969 C 536.777344 335.292969 542.804688 336.53125 547.589844 339.007812 C 552.375 341.484375 555.964844 345.011719 558.355469 349.582031 C 560.75 354.15625 561.945312 359.539062 561.945312 365.730469 C 561.945312 372.113281 560.507812 377.78125 557.636719 382.734375 C 554.765625 387.59375 550.554688 391.257812 545.007812 393.738281 L 565.390625 433.316406 L 545.007812 433.316406 L 526.917969 396.878906 L 496.34375 396.878906 L 496.34375 433.316406 Z M 496.34375 381.304688 L 528.066406 381.304688 C 532.851562 381.304688 536.535156 379.921875 539.121094 377.160156 C 541.703125 374.398438 542.996094 370.589844 542.996094 365.730469 C 542.996094 362.585938 542.421875 359.964844 541.273438 357.871094 C 540.125 355.679688 538.449219 354.011719 536.25 352.871094 C 534.046875 351.726562 531.320312 351.15625 528.066406 351.15625 L 496.34375 351.15625 Z M 580.578125 433.316406 L 580.578125 335.292969 L 599.238281 335.292969 L 599.238281 433.316406 Z M 664.441406 435.03125 C 654.394531 435.03125 645.78125 433.269531 638.601562 429.746094 C 631.519531 426.222656 626.066406 420.742188 622.238281 413.3125 C 618.507812 405.789062 616.640625 396.117188 616.640625 384.304688 C 616.640625 367.0625 620.851562 354.296875 629.273438 346.011719 C 637.695312 337.722656 649.417969 333.578125 664.441406 333.578125 C 672.574219 333.578125 679.898438 334.960938 686.40625 337.722656 C 693.007812 340.484375 698.222656 344.675781 702.050781 350.296875 C 705.972656 355.820312 707.9375 362.871094 707.9375 371.445312 L 688.84375 371.445312 C 688.84375 366.683594 687.792969 362.679688 685.6875 359.441406 C 683.675781 356.109375 680.855469 353.582031 677.21875 351.867188 C 673.582031 350.152344 669.417969 349.296875 664.730469 349.296875 C 658.222656 349.296875 652.8125 350.582031 648.507812 353.15625 C 644.203125 355.632812 640.996094 359.347656 638.890625 364.300781 C 636.878906 369.253906 635.875 375.398438 635.875 382.734375 L 635.875 385.878906 C 635.875 393.308594 636.878906 399.5 638.890625 404.453125 C 640.996094 409.40625 644.152344 413.121094 648.363281 415.597656 C 652.671875 418.078125 658.125 419.316406 664.730469 419.316406 C 669.703125 419.316406 674.058594 418.503906 677.792969 416.886719 C 681.523438 415.171875 684.394531 412.695312 686.40625 409.453125 C 688.507812 406.121094 689.5625 402.070312 689.5625 397.308594 L 707.9375 397.308594 C 707.9375 405.882812 706.023438 412.980469 702.195312 418.601562 C 698.367188 424.125 693.152344 428.269531 686.546875 431.03125 C 680.039062 433.699219 672.671875 435.03125 664.441406 435.03125 Z M 769.761719 435.03125 C 759.523438 435.03125 750.671875 433.222656 743.207031 429.601562 C 735.742188 425.886719 730 420.265625 725.980469 412.742188 C 722.058594 405.214844 720.09375 395.738281 720.09375 384.304688 C 720.09375 372.777344 722.058594 363.300781 725.980469 355.871094 C 730 348.34375 735.742188 342.769531 743.207031 339.152344 C 750.671875 335.4375 759.523438 333.578125 769.761719 333.578125 C 780.097656 333.578125 788.949219 335.4375 796.320312 339.152344 C 803.785156 342.769531 809.476562 348.34375 813.402344 355.871094 C 817.421875 363.300781 819.433594 372.777344 819.433594 384.304688 C 819.433594 395.738281 817.421875 405.214844 813.402344 412.742188 C 809.476562 420.265625 803.785156 425.886719 796.320312 429.601562 C 788.949219 433.222656 780.097656 435.03125 769.761719 435.03125 Z M 769.761719 419.316406 C 774.738281 419.316406 779.09375 418.601562 782.828125 417.171875 C 786.652344 415.742188 789.859375 413.648438 792.445312 410.882812 C 795.027344 408.027344 796.988281 404.546875 798.332031 400.453125 C 799.667969 396.261719 800.339844 391.449219 800.339844 386.019531 L 800.339844 382.875 C 800.339844 377.351562 799.667969 372.492188 798.332031 368.300781 C 796.988281 364.109375 795.027344 360.632812 792.445312 357.871094 C 789.859375 355.011719 786.652344 352.871094 782.828125 351.441406 C 779.09375 350.011719 774.738281 349.296875 769.761719 349.296875 C 764.785156 349.296875 760.382812 350.011719 756.558594 351.441406 C 752.824219 352.871094 749.667969 355.011719 747.082031 357.871094 C 744.5 360.632812 742.535156 364.109375 741.195312 368.300781 C 739.953125 372.492188 739.332031 377.351562 739.332031 382.875 L 739.332031 386.019531 C 739.332031 391.449219 739.953125 396.261719 741.195312 400.453125 C 742.535156 404.546875 744.5 408.027344 747.082031 410.882812 C 749.667969 413.648438 752.824219 415.742188 756.558594 417.171875 C 760.382812 418.601562 764.785156 419.316406 769.761719 419.316406 Z M 1009.261719 433.316406 L 1009.261719 335.292969 L 1086.058594 335.292969 L 1086.058594 351.15625 L 1027.921875 351.15625 L 1027.921875 375.304688 L 1079.742188 375.304688 L 1079.742188 391.164062 L 1027.921875 391.164062 L 1027.921875 417.457031 L 1086.917969 417.457031 L 1086.917969 433.316406 Z M 1009.261719 433.316406 " fill-opacity="1" fill-rule="nonzero"/></g><path fill="#986dff" d="M 881.835938 338.6875 C 879.875 338.6875 878.332031 338.96875 877.210938 339.523438 C 876.183594 340.082031 875.4375 341.335938 874.972656 343.289062 C 874.59375 345.242188 874.410156 348.351562 874.410156 352.628906 L 874.410156 366.289062 C 874.410156 369.820312 873.851562 372.886719 872.726562 375.488281 C 871.699219 377.996094 870.484375 380.042969 869.085938 381.621094 C 867.683594 383.203125 866.375 384.410156 865.160156 385.246094 C 866.1875 385.988281 867.402344 387.152344 868.804688 388.730469 C 870.296875 390.21875 871.605469 392.078125 872.726562 394.308594 C 873.851562 396.445312 874.410156 398.859375 874.410156 401.554688 L 874.410156 418.28125 C 874.410156 422.464844 874.59375 425.53125 874.972656 427.484375 C 875.4375 429.433594 876.183594 430.6875 877.210938 431.246094 C 878.332031 431.804688 879.875 432.082031 881.835938 432.082031 L 887.019531 432.082031 L 887.019531 449.089844 L 875.949219 449.089844 C 873.332031 449.089844 870.71875 449.042969 868.101562 448.949219 C 865.582031 448.855469 863.246094 448.34375 861.101562 447.417969 C 858.953125 446.578125 857.21875 444.953125 855.914062 442.539062 C 854.699219 440.214844 854.09375 436.820312 854.09375 432.363281 L 854.09375 409.363281 C 854.09375 406.574219 853.671875 403.972656 852.832031 401.554688 C 851.988281 399.046875 850.730469 397 849.046875 395.421875 C 847.371094 393.84375 845.265625 393.050781 842.746094 393.050781 L 842.746094 376.882812 C 845.265625 376.789062 847.371094 376 849.046875 374.511719 C 850.730469 372.933594 851.988281 370.933594 852.832031 368.519531 C 853.671875 366.011719 854.09375 363.363281 854.09375 360.574219 L 854.09375 338.550781 C 854.09375 334.089844 854.699219 330.695312 855.914062 328.375 C 857.132812 326.050781 858.765625 324.425781 860.816406 323.496094 C 862.96875 322.566406 865.347656 322.054688 867.964844 321.960938 C 870.578125 321.777344 873.238281 321.683594 875.949219 321.683594 L 887.019531 321.683594 L 887.019531 338.6875 Z M 986.292969 386.5 C 986.292969 395.980469 985.125 404.855469 982.789062 413.125 C 980.546875 421.394531 977.652344 428.738281 974.105469 435.148438 C 970.554688 441.65625 966.769531 446.996094 962.753906 451.179688 L 946.640625 443.792969 C 950.285156 439.609375 953.554688 434.683594 956.449219 429.015625 C 959.347656 423.441406 961.632812 417.121094 963.316406 410.058594 C 965 402.902344 965.835938 395.050781 965.835938 386.5 C 965.835938 377.953125 965 370.144531 963.316406 363.082031 C 961.632812 355.925781 959.347656 349.5625 956.449219 343.984375 C 953.554688 338.316406 950.285156 333.4375 946.640625 329.347656 L 962.753906 321.820312 C 966.769531 326.003906 970.554688 331.347656 974.105469 337.851562 C 977.652344 344.359375 980.546875 351.746094 982.789062 360.015625 C 985.125 368.195312 986.292969 377.023438 986.292969 386.5 Z M 986.292969 386.5 " fill-opacity="1" fill-rule="nonzero"/><g fill="#ffffff" fill-opacity="1"><g transform="translate(340.719716, 443.784894)"><g><path d="M 6.453125 -112.859375 L 24.1875 -112.859375 L 24.1875 0 L 6.453125 0 Z M 6.453125 -112.859375 "/></g></g></g><g fill="#ffffff" fill-opacity="1"><g transform="translate(371.348854, 443.784894)"><g><path d="M 33.046875 -62.875 L 57.875 -62.875 L 57.875 -27.078125 C 57.875 -17.941406 55.644531 -10.925781 51.1875 -6.03125 C 46.726562 -1.144531 40.144531 1.296875 31.4375 1.296875 C 22.726562 1.296875 16.144531 -1.144531 11.6875 -6.03125 C 7.226562 -10.925781 5 -17.941406 5 -27.078125 L 5 -85.765625 C 5 -94.898438 7.226562 -101.910156 11.6875 -106.796875 C 16.144531 -111.691406 22.726562 -114.140625 31.4375 -114.140625 C 40.144531 -114.140625 46.726562 -111.691406 51.1875 -106.796875 C 55.644531 -101.910156 57.875 -94.898438 57.875 -85.765625 L 57.875 -74.8125 L 41.109375 -74.8125 L 41.109375 -86.890625 C 41.109375 -90.972656 40.273438 -93.847656 38.609375 -95.515625 C 36.941406 -97.179688 34.710938 -98.015625 31.921875 -98.015625 C 29.128906 -98.015625 26.898438 -97.179688 25.234375 -95.515625 C 23.566406 -93.847656 22.734375 -90.972656 22.734375 -86.890625 L 22.734375 -25.953125 C 22.734375 -21.867188 23.566406 -19.019531 25.234375 -17.40625 C 26.898438 -15.800781 29.128906 -15 31.921875 -15 C 34.710938 -15 36.941406 -15.800781 38.609375 -17.40625 C 40.273438 -19.019531 41.109375 -21.867188 41.109375 -25.953125 L 41.109375 -46.75 L 33.046875 -46.75 Z M 33.046875 -62.875 "/></g></g></g><g fill="#ffffff" fill-opacity="1"><g transform="translate(434.219231, 443.784894)"><g><path d="M 22.734375 -25.953125 C 22.734375 -21.867188 23.566406 -18.992188 25.234375 -17.328125 C 26.898438 -15.660156 29.128906 -14.828125 31.921875 -14.828125 C 34.710938 -14.828125 36.941406 -15.660156 38.609375 -17.328125 C 40.273438 -18.992188 41.109375 -21.867188 41.109375 -25.953125 L 41.109375 -86.890625 C 41.109375 -90.972656 40.273438 -93.847656 38.609375 -95.515625 C 36.941406 -97.179688 34.710938 -98.015625 31.921875 -98.015625 C 29.128906 -98.015625 26.898438 -97.179688 25.234375 -95.515625 C 23.566406 -93.847656 22.734375 -90.972656 22.734375 -86.890625 Z M 5 -85.765625 C 5 -94.898438 7.304688 -101.910156 11.921875 -106.796875 C 16.546875 -111.691406 23.210938 -114.140625 31.921875 -114.140625 C 40.628906 -114.140625 47.289062 -111.691406 51.90625 -106.796875 C 56.53125 -101.910156 58.84375 -94.898438 58.84375 -85.765625 L 58.84375 -27.078125 C 58.84375 -17.941406 56.53125 -10.925781 51.90625 -6.03125 C 47.289062 -1.144531 40.628906 1.296875 31.921875 1.296875 C 23.210938 1.296875 16.546875 -1.144531 11.921875 -6.03125 C 7.304688 -10.925781 5 -17.941406 5 -27.078125 Z M 5 -85.765625 "/></g></g></g><g fill="#ffffff" fill-opacity="1"><g transform="translate(498.05682, 443.784894)"><g><path d="M 43.53125 0 C 43.3125 -0.75 43.09375 -1.445312 42.875 -2.09375 C 42.664062 -2.738281 42.476562 -3.546875 42.3125 -4.515625 C 42.15625 -5.484375 42.050781 -6.71875 42 -8.21875 C 41.945312 -9.726562 41.921875 -11.609375 41.921875 -13.859375 L 41.921875 -31.59375 C 41.921875 -36.863281 41.003906 -40.570312 39.171875 -42.71875 C 37.347656 -44.875 34.394531 -45.953125 30.3125 -45.953125 L 24.1875 -45.953125 L 24.1875 0 L 6.453125 0 L 6.453125 -112.859375 L 33.21875 -112.859375 C 42.457031 -112.859375 49.144531 -110.707031 53.28125 -106.40625 C 57.414062 -102.101562 59.484375 -95.597656 59.484375 -86.890625 L 59.484375 -78.03125 C 59.484375 -66.425781 55.613281 -58.796875 47.875 -55.140625 C 52.394531 -53.304688 55.488281 -50.320312 57.15625 -46.1875 C 58.820312 -42.050781 59.65625 -37.023438 59.65625 -31.109375 L 59.65625 -13.703125 C 59.65625 -10.910156 59.757812 -8.460938 59.96875 -6.359375 C 60.1875 -4.265625 60.722656 -2.144531 61.578125 0 Z M 24.1875 -96.734375 L 24.1875 -62.0625 L 31.109375 -62.0625 C 34.441406 -62.0625 37.046875 -62.921875 38.921875 -64.640625 C 40.804688 -66.367188 41.75 -69.488281 41.75 -74 L 41.75 -85.125 C 41.75 -89.207031 41.023438 -92.160156 39.578125 -93.984375 C 38.128906 -95.816406 35.847656 -96.734375 32.734375 -96.734375 Z M 24.1875 -96.734375 "/></g></g></g><g fill="#ffffff" fill-opacity="1"><g transform="translate(562.861657, 443.784894)"><g><path d="M 57.875 -42.078125 L 57.875 -27.078125 C 57.875 -17.941406 55.644531 -10.925781 51.1875 -6.03125 C 46.726562 -1.144531 40.144531 1.296875 31.4375 1.296875 C 22.726562 1.296875 16.144531 -1.144531 11.6875 -6.03125 C 7.226562 -10.925781 5 -17.941406 5 -27.078125 L 5 -85.765625 C 5 -94.898438 7.226562 -101.910156 11.6875 -106.796875 C 16.144531 -111.691406 22.726562 -114.140625 31.4375 -114.140625 C 40.144531 -114.140625 46.726562 -111.691406 51.1875 -106.796875 C 55.644531 -101.910156 57.875 -94.898438 57.875 -85.765625 L 57.875 -74.8125 L 41.109375 -74.8125 L 41.109375 -86.890625 C 41.109375 -90.972656 40.273438 -93.847656 38.609375 -95.515625 C 36.941406 -97.179688 34.710938 -98.015625 31.921875 -98.015625 C 29.128906 -98.015625 26.898438 -97.179688 25.234375 -95.515625 C 23.566406 -93.847656 22.734375 -90.972656 22.734375 -86.890625 L 22.734375 -25.953125 C 22.734375 -21.867188 23.566406 -19.019531 25.234375 -17.40625 C 26.898438 -15.800781 29.128906 -15 31.921875 -15 C 34.710938 -15 36.941406 -15.800781 38.609375 -17.40625 C 40.273438 -19.019531 41.109375 -21.867188 41.109375 -25.953125 L 41.109375 -42.078125 Z M 57.875 -42.078125 "/></g></g></g><g fill="#ffffff" fill-opacity="1"><g transform="translate(625.087214, 443.784894)"><g><path d="M 22.734375 -25.953125 C 22.734375 -21.867188 23.566406 -18.992188 25.234375 -17.328125 C 26.898438 -15.660156 29.128906 -14.828125 31.921875 -14.828125 C 34.710938 -14.828125 36.941406 -15.660156 38.609375 -17.328125 C 40.273438 -18.992188 41.109375 -21.867188 41.109375 -25.953125 L 41.109375 -86.890625 C 41.109375 -90.972656 40.273438 -93.847656 38.609375 -95.515625 C 36.941406 -97.179688 34.710938 -98.015625 31.921875 -98.015625 C 29.128906 -98.015625 26.898438 -97.179688 25.234375 -95.515625 C 23.566406 -93.847656 22.734375 -90.972656 22.734375 -86.890625 Z M 5 -85.765625 C 5 -94.898438 7.304688 -101.910156 11.921875 -106.796875 C 16.546875 -111.691406 23.210938 -114.140625 31.921875 -114.140625 C 40.628906 -114.140625 47.289062 -111.691406 51.90625 -106.796875 C 56.53125 -101.910156 58.84375 -94.898438 58.84375 -85.765625 L 58.84375 -27.078125 C 58.84375 -17.941406 56.53125 -10.925781 51.90625 -6.03125 C 47.289062 -1.144531 40.628906 1.296875 31.921875 1.296875 C 23.210938 1.296875 16.546875 -1.144531 11.921875 -6.03125 C 7.304688 -10.925781 5 -17.941406 5 -27.078125 Z M 5 -85.765625 "/></g></g></g><g fill="#ffffff" fill-opacity="1"><g transform="translate(688.924803, 443.784894)"><g><path d="M 6.453125 -112.859375 L 34.5 -112.859375 C 43.414062 -112.859375 50.050781 -110.492188 54.40625 -105.765625 C 58.757812 -101.035156 60.9375 -94.101562 60.9375 -84.96875 L 60.9375 -27.890625 C 60.9375 -18.753906 58.757812 -11.820312 54.40625 -7.09375 C 50.050781 -2.363281 43.414062 0 34.5 0 L 6.453125 0 Z M 24.1875 -96.734375 L 24.1875 -16.125 L 34.171875 -16.125 C 36.972656 -16.125 39.175781 -16.925781 40.78125 -18.53125 C 42.394531 -20.144531 43.203125 -22.992188 43.203125 -27.078125 L 43.203125 -85.765625 C 43.203125 -89.847656 42.394531 -92.695312 40.78125 -94.3125 C 39.175781 -95.925781 36.972656 -96.734375 34.171875 -96.734375 Z M 24.1875 -96.734375 "/></g></g></g><g fill="#ffffff" fill-opacity="1"><g transform="translate(754.696887, 443.784894)"><g><path d="M 24.1875 -65.296875 L 48.53125 -65.296875 L 48.53125 -49.171875 L 24.1875 -49.171875 L 24.1875 -16.125 L 54.8125 -16.125 L 54.8125 0 L 6.453125 0 L 6.453125 -112.859375 L 54.8125 -112.859375 L 54.8125 -96.734375 L 24.1875 -96.734375 Z M 24.1875 -65.296875 "/></g></g></g></svg>
